<svg xmlns="http://www.w3.org/2000/svg" width="100" height="100" viewBox="0 0 100 100"><defs><style>.cls-1,.cls-2,.cls-3,.cls-4,.cls-5{fill:#fff;stroke:#266ff2;stroke-miterlimit:10;}.cls-1{stroke-width:2px;}.cls-2{stroke-width:2.02px;}.cls-3{stroke-width:1.98px;}.cls-4{stroke-width:1.98px;}.cls-5{stroke-width:1.97px;}</style></defs><title>IcoBanking</title><g id="Layer_6" data-name="Layer 6"><polyline class="cls-1" points="50 36 7 36 4.5 33.5 50 12"></polyline><polyline class="cls-1" points="11.83 36 11.83 40 12.92 41.08 50 41.08"></polyline><polyline class="cls-1" points="11.83 86 11.83 82.13 12.92 81.08 50 81.08"></polyline><polyline class="cls-1" points="50 87.08 7.09 87.08 5.83 88.13 5.83 92 7 94 50 94"></polyline><path class="cls-1" d="M17,41H29a0,0,0,0,1,0,0v3.5A1.5,1.5,0,0,1,27.5,46h-9A1.5,1.5,0,0,1,17,44.5V41A0,0,0,0,1,17,41Z"></path><path class="cls-1" d="M18.34,77h9.32A1.34,1.34,0,0,1,29,78.34V81a0,0,0,0,1,0,0H17a0,0,0,0,1,0,0V78.34A1.34,1.34,0,0,1,18.34,77Z"></path><rect class="cls-1" x="19" y="46" width="8" height="31"></rect><path class="cls-1" d="M72,41H84a0,0,0,0,1,0,0v3.5A1.5,1.5,0,0,1,82.5,46h-9A1.5,1.5,0,0,1,72,44.5V41A0,0,0,0,1,72,41Z"></path><path class="cls-1" d="M73.34,77h9.32A1.34,1.34,0,0,1,84,78.34V81a0,0,0,0,1,0,0H72a0,0,0,0,1,0,0V78.34A1.34,1.34,0,0,1,73.34,77Z"></path><rect class="cls-1" x="74" y="46" width="8" height="31"></rect><path class="cls-1" d="M54,41H66a0,0,0,0,1,0,0v3.5A1.5,1.5,0,0,1,64.5,46h-9A1.5,1.5,0,0,1,54,44.5V41A0,0,0,0,1,54,41Z"></path><path class="cls-1" d="M55.34,77h9.32A1.34,1.34,0,0,1,66,78.34V81a0,0,0,0,1,0,0H54a0,0,0,0,1,0,0V78.34A1.34,1.34,0,0,1,55.34,77Z"></path><rect class="cls-1" x="56" y="46" width="8" height="31"></rect><polyline class="cls-2" points="50 36 93.94 36 96.5 33.5 50 12"></polyline><polyline class="cls-2" points="89 36 89 40 87.9 41.08 50 41.08"></polyline><polyline class="cls-2" points="89 86 89 82.13 87.9 81.08 50 81.08"></polyline><polyline class="cls-2" points="50 87.08 93.86 87.08 95.14 88.13 95.14 92 93.94 94 50 94"></polyline><path class="cls-3" d="M36.5,41h9A1.5,1.5,0,0,1,47,42.5V46a0,0,0,0,1,0,0H35a0,0,0,0,1,0,0V42.5A1.5,1.5,0,0,1,36.5,41Z" transform="translate(82 87) rotate(180)"></path><path class="cls-4" d="M35,77H47a0,0,0,0,1,0,0v2.66A1.34,1.34,0,0,1,45.66,81H36.34A1.34,1.34,0,0,1,35,79.66V77A0,0,0,0,1,35,77Z" transform="translate(82 158) rotate(180)"></path><rect class="cls-5" x="37" y="46" width="7.96" height="31" transform="translate(81.96 123) rotate(180)"></rect></g></svg>