<svg xmlns="http://www.w3.org/2000/svg" viewBox="0 0 100 100" width="60" height="60"><defs><style>.cls-1{fill:none;stroke:#266ff2;stroke-miterlimit:10;stroke-width:2px;}</style></defs><title>IcoIotManufacturing</title><g id="Layer_6" data-name="Layer 6"><rect class="cls-1" x="9" y="75" width="84" height="17" rx="8.5"></rect><path class="cls-1" d="M26.5,68h0A10.7,10.7,0,0,1,15.83,56.53l2.63-36a8.05,8.05,0,0,1,8-7.48h0a8.05,8.05,0,0,1,8,7.48l2.63,36.05A10.7,10.7,0,0,1,26.5,68Z"></path><path class="cls-1" d="M50.05,59h0a6.32,6.32,0,0,1,.34-9.24l16.13-14A4.77,4.77,0,0,1,73,36h0a4.77,4.77,0,0,1,.24,6.48L59.29,58.61A6.32,6.32,0,0,1,50.05,59Z"></path><circle class="cls-1" cx="26.5" cy="57" r="3"></circle><circle class="cls-1" cx="17" cy="83.5" r="3"></circle><circle class="cls-1" cx="84" cy="83.5" r="3"></circle><circle class="cls-1" cx="26.5" cy="20" r="2"></circle><circle class="cls-1" cx="55" cy="54" r="2"></circle><line class="cls-1" x1="33" y1="17" x2="53" y2="47"></line><line class="cls-1" x1="36" y1="38" x2="47" y2="55"></line><polygon class="cls-1" points="76.7 34.22 73.87 31.39 75.99 23.61 85.18 18.66 86.6 20.07 82.35 24.32 78.82 26.44 76.7 34.22"></polygon><polygon class="cls-1" points="75.28 32.8 78.11 35.63 85.89 33.51 90.84 24.32 89.42 22.9 85.18 27.15 83.06 30.68 75.28 32.8"></polygon><line class="cls-1" x1="29" y1="68" x2="29" y2="75"></line><line class="cls-1" x1="24" y1="68" x2="24" y2="75"></line></g></svg>