<svg xmlns="http://www.w3.org/2000/svg" viewBox="0 0 100 100" width="60" height="60"><defs><style>.cls-1{fill:none;stroke:#266ff2;stroke-miterlimit:10;stroke-width:2px;}</style></defs><title>IcoSalesMarketing</title><g id="Layer_6" data-name="Layer 6"><path class="cls-1" d="M22,70H34a2,2,0,0,1,2,2V92a0,0,0,0,1,0,0H20a0,0,0,0,1,0,0V72A2,2,0,0,1,22,70Z"></path><path class="cls-1" d="M5,56C50,43,85,16,92,6"></path><polyline class="cls-1" points="82 6 92 6 92 16"></polyline><path class="cls-1" d="M45.57,55H56.43A2.57,2.57,0,0,1,59,57.57V92a0,0,0,0,1,0,0H43a0,0,0,0,1,0,0V57.57A2.57,2.57,0,0,1,45.57,55Z"></path><path class="cls-1" d="M69.2,34.5h9.6A3.2,3.2,0,0,1,82,37.7V92a0,0,0,0,1,0,0H66a0,0,0,0,1,0,0V37.7A3.2,3.2,0,0,1,69.2,34.5Z"></path><line class="cls-1" x1="6" y1="92" x2="94" y2="92"></line></g></svg>