<svg xmlns="http://www.w3.org/2000/svg" width="100" height="100" viewBox="0 0 100 100"><defs><style>.cls-1,.cls-2,.cls-3{fill:none;stroke:#266ff2;stroke-miterlimit:10;}.cls-1{stroke-width:1.99px;}.cls-2{stroke-width:2px;}.cls-3{stroke-width:2.07px;}</style></defs><title>IcoBetting</title><g id="Layer_6" data-name="Layer 6"><polygon class="cls-1" points="9 88 9 8 14.94 14 21.37 7.5 27.31 13.5 33.25 7.5 39.19 13.5 45.12 7.5 51.06 13.5 57 7.5 57 88 52 83 47 88 41 83 35 88 28 83 22 88 16 83 9 88"></polygon><polyline class="cls-2" points="65 24 71 19 71 36"></polyline><line class="cls-2" x1="67" y1="36" x2="75" y2="36"></line><line class="cls-3" x1="82" y1="41" x2="92" y2="57"></line><line class="cls-3" x1="92" y1="41" x2="82" y2="57"></line><path class="cls-2" d="M67,68V66a4,4,0,0,1,4-4h0a4,4,0,0,1,4,4v3L67,79v2h8V79"></path><line class="cls-3" x1="14" y1="27" x2="33" y2="27"></line><line class="cls-3" x1="14" y1="36" x2="33" y2="36"></line><line class="cls-3" x1="14" y1="45" x2="33" y2="45"></line><line class="cls-3" x1="14" y1="54" x2="33" y2="54"></line><line class="cls-3" x1="14" y1="63" x2="33" y2="63"></line><line class="cls-2" x1="45" y1="27" x2="52" y2="27"></line><line class="cls-2" x1="45" y1="36" x2="52" y2="36"></line><line class="cls-2" x1="45" y1="45" x2="52" y2="45"></line><line class="cls-2" x1="45" y1="54" x2="52" y2="54"></line><line class="cls-2" x1="45" y1="63" x2="52" y2="63"></line></g></svg>