<svg xmlns="http://www.w3.org/2000/svg" viewBox="0 0 100 100" width="60" height="60"><defs><style>.cls-1{fill:none;}.cls-1,.cls-2{stroke:#266ff2;stroke-miterlimit:10;stroke-width:2px;}.cls-2{fill:#fff;}.cls-3{fill:#266ff2;}</style></defs><title>IcoSport</title><g id="Layer_6" data-name="Layer 6"><circle class="cls-1" cx="41" cy="66" r="4"></circle><circle class="cls-1" cx="65" cy="41" r="4"></circle><circle class="cls-1" cx="65" cy="77" r="4"></circle><rect class="cls-1" x="19" y="14" width="64" height="80" rx="2.69"></rect><rect class="cls-1" x="24" y="18" width="54" height="71"></rect><path class="cls-2" d="M65,10H56a5,5,0,0,0-10,0H37L34,23H68Z"></path><circle class="cls-3" cx="51" cy="10" r="2"></circle><path class="cls-1" d="M45.05,61.73c8-6,13.59-11.36,16-14.73"></path><polyline class="cls-1" points="53 47 61 47 61 55"></polyline><line class="cls-1" x1="35" y1="40" x2="41" y2="46"></line><line class="cls-1" x1="41" y1="40" x2="35" y2="46"></line><line class="cls-1" x1="55" y1="62" x2="61" y2="68"></line><line class="cls-1" x1="61" y1="62" x2="55" y2="68"></line><line class="cls-1" x1="35" y1="77" x2="41" y2="83"></line><line class="cls-1" x1="41" y1="77" x2="35" y2="83"></line></g></svg>