<svg width="170" height="170" viewBox="0 0 170 170" fill="none" xmlns="http://www.w3.org/2000/svg">
<rect width="170" height="170" fill="white"/>
<path d="M133.022 113.201C133.069 112.976 133.152 112.788 133.152 112.551V96.893C133.152 84.268 123.541 74 111.719 74C99.897 74 90.287 84.268 90.287 96.893L90.299 110.6C90.299 119.88 83.393 127.434 74.913 127.434C66.434 127.434 59.534 119.88 59.534 110.6V78.783C74.579 77.597 86.504 65.111 86.504 49.761V23.026C86.504 21.357 85.147 20 83.478 20H73.896C72.227 20 70.87 21.357 70.87 23.026C70.87 24.696 72.227 26.052 73.896 26.052H80.451V49.76C80.451 62.548 70.045 72.96 57.251 72.96C44.454 72.96 34.051 62.548 34.051 49.76V26.053H41.114C42.783 26.053 44.14 24.697 44.14 23.027C44.141 21.357 42.785 20 41.115 20H31.026C29.356 20 28 21.357 28 23.026V49.76C28 64.596 39.142 76.755 53.481 78.631V110.6C53.481 123.226 63.092 133.487 74.913 133.487C86.734 133.487 96.351 123.226 96.351 110.6L96.34 96.893C96.34 87.607 103.244 80.053 111.72 80.053C120.196 80.053 127.1 87.607 127.1 96.893V112.55C127.1 112.646 127.135 112.693 127.147 112.775C121.958 113.816 118.033 118.415 118.033 123.9C118.033 130.159 123.116 135.249 129.382 135.249C135.636 135.249 140.731 130.159 140.731 123.9C140.729 118.922 137.49 114.726 133.022 113.201ZM129.386 129.196C126.472 129.196 124.09 126.808 124.09 123.9C124.09 120.992 126.472 118.603 129.386 118.603C132.3 118.603 134.682 120.992 134.682 123.9C134.682 126.808 132.301 129.196 129.386 129.196Z" fill="#266FF2"/>
</svg>
