<svg xmlns="http://www.w3.org/2000/svg" width="100" height="100" viewBox="0 0 100 100"><defs><style>.cls-1{fill:none;stroke:#266ff2;stroke-miterlimit:10;stroke-width:2px;}</style></defs><title>IcoMedia</title><g id="Layer_6" data-name="Layer 6"><path class="cls-1" d="M16,41H85a0,0,0,0,1,0,0V84a4,4,0,0,1-4,4H20a4,4,0,0,1-4-4V41A0,0,0,0,1,16,41Z"></path><line class="cls-1" x1="27" y1="41" x2="16.5" y2="51.5"></line><line class="cls-1" x1="38.6" y1="41" x2="28.1" y2="51.5"></line><line class="cls-1" x1="50.2" y1="41" x2="39.7" y2="51.5"></line><line class="cls-1" x1="61.8" y1="41" x2="51.3" y2="51.5"></line><line class="cls-1" x1="73.4" y1="41" x2="62.9" y2="51.5"></line><line class="cls-1" x1="85" y1="41" x2="74.5" y2="51.5"></line><path class="cls-1" d="M15,19.64H80a2,2,0,0,1,2,2v10a0,0,0,0,1,0,0H13a0,0,0,0,1,0,0v-10A2,2,0,0,1,15,19.64Z" transform="translate(-5.26 14.22) rotate(-16.15)"></path><line class="cls-1" x1="26.57" y1="37.94" x2="13.56" y2="30.78"></line><line class="cls-1" x1="38.09" y1="34.6" x2="23.23" y2="26.41"></line><line class="cls-1" x1="48.66" y1="31.54" x2="33.79" y2="23.35"></line><line class="cls-1" x1="60.18" y1="28.2" x2="45.94" y2="20.36"></line><line class="cls-1" x1="70.75" y1="25.14" x2="56.5" y2="17.3"></line><line class="cls-1" x1="82.28" y1="21.8" x2="67.41" y2="13.62"></line><line class="cls-1" x1="17" y1="52" x2="85" y2="52"></line></g></svg>